<svg width="41" height="47" viewBox="0 0 41 47" fill="none" xmlns="http://www.w3.org/2000/svg">
<g clip-path="url(#clip0_32_36)">
<path d="M0 12.505C0 12.505 6.18694 0.0943786 20.5923 1.11083e-06C20.5923 1.11083e-06 33.7973 -0.943774 41 13.2129H22.1622L32.9662 10.3815C32.9662 10.3815 29.8266 5.61546 22.67 3.53916C22.6239 3.53916 11.0811 -1.36847 0 12.505Z" fill="#FCCD0A"/>
<path d="M2.21619 12.2219C2.21619 12.2219 7.11033 4.6245 15.8829 4.01104C15.8829 4.01104 23.8243 2.83133 30.1959 9.86245L27.6103 10.3343C27.6103 10.3343 22.6238 5.4739 16.206 5.56827C16.206 5.56827 9.74209 4.1998 2.21619 12.2219Z" fill="#D92026"/>
<path d="M0 33.7872H18.5146L7.98761 36.7129C7.98761 36.7129 9.6036 39.3554 15.0518 42.3755C15.0518 42.3755 18.4685 44.8293 26.6869 44.2159C26.6869 44.2159 34.3513 43.2249 40.9077 34.8253C40.9077 34.8253 37.1678 43.4137 26.2714 46.4337C26.2714 46.4337 14.3131 49.1707 6.23311 42.0452C6.32545 42.0924 2.95495 39.4498 0 33.7872Z" fill="#FCCD0A"/>
<path d="M10.7117 37.3263L13.482 36.6657C13.482 36.6657 17.4066 41.4317 24.1014 41.5261C24.1014 41.5261 32.4122 42.6115 38.9223 34.6837C38.9223 34.6837 35.2748 42.5171 25.5327 43.1777C25.4865 43.1777 17.5912 44.735 10.7117 37.3263Z" fill="#D92026"/>
<path d="M19.9459 22.0372L20.1768 20.008L22.6238 20.1496H22.67C22.8547 20.2912 23.6858 21.1878 22.3468 21.99H19.9459V22.0372Z" fill="#D92026"/>
<path d="M19.3919 26.8976L19.6228 24.8685L22.0698 25.01H22.116C22.3007 25.1516 23.1318 26.0482 21.7928 26.8504H19.3919V26.8976Z" fill="#D92026"/>
<path d="M9.97297 22.2259H16.3908L15.3288 29.1627C15.2827 29.3514 14.6824 29.5402 14.4977 29.6345C11.4505 31.0974 6.60248 31.5693 4.84797 27.8886C4.70946 27.6054 4.61712 27.3223 4.52478 27.0392C4.29392 26.237 4.20158 25.3404 4.24775 24.491C4.24775 24.491 4.10924 20.1968 7.43356 17.507C7.43356 17.507 13.5282 13.5432 16.8063 19.1115C16.3908 19.3946 15.9752 19.7249 15.5135 20.008C15.1903 20.244 14.9133 20.4327 14.5901 20.6687C14.3131 20.8574 14.1284 21.1406 13.8975 20.8103C13.5282 20.3384 13.0203 20.008 12.4662 19.8665C11.589 19.6777 10.6194 19.9609 9.97297 20.5743C9.00338 21.4237 8.54167 22.745 8.35698 23.9719C8.35698 23.9719 7.80293 26.1426 9.51126 27.0864C9.51126 27.0864 10.2962 27.6526 11.9122 26.8976L12.143 25.2932L9.46509 25.1988L9.97297 22.2259Z" fill="#FCCD0A"/>
<path d="M23.5934 16.4689C23.5934 16.4689 31.1194 17.6486 25.2556 23.2641C25.2556 23.2641 28.3491 25.0101 26.2714 28.0773C26.2714 28.0773 24.8862 30.6727 21.5157 30.4368H36.2905L36.7984 26.8976H31.1655L32.7815 16.4689H23.5934Z" fill="#FCCD0A"/>
</g>
<defs>
<clipPath id="clip0_32_36">
<rect width="41" height="47" fill="white"/>
</clipPath>
</defs>
</svg>
